<svg xmlns="http://www.w3.org/2000/svg" viewBox="0 0 90 90">
  <defs>
    <linearGradient id="g" x1="20%" y1="0%" x2="80%" y2="100%">
      <stop offset="0%"   stop-color="#FFE0C8"/>
      <stop offset="30%"  stop-color="#FB923C"/>
      <stop offset="65%"  stop-color="#EA580C"/>
      <stop offset="100%" stop-color="#9A3412"/>
    </linearGradient>
    <linearGradient id="lf" x1="0%" y1="0%" x2="100%" y2="0%">
      <stop offset="0%"   stop-color="rgba(234,88,12,0.90)"/>
      <stop offset="100%" stop-color="rgba(251,146,60,0.60)"/>
    </linearGradient>
    <linearGradient id="rf" x1="0%" y1="0%" x2="100%" y2="0%">
      <stop offset="0%"   stop-color="rgba(251,146,60,0.60)"/>
      <stop offset="100%" stop-color="rgba(154,52,18,0.95)"/>
    </linearGradient>
  </defs>
  <polygon points="45,9 84,33 84,61 45,87 6,61 6,33" fill="rgba(180,70,20,0.35)"/>
  <polygon points="45,6 82,32 82,58 45,84 8,58 8,32" fill="url(#g)"/>
  <polygon points="45,6 8,32 45,42"  fill="rgba(255,255,255,0.38)"/>
  <polygon points="45,6 82,32 45,42" fill="rgba(255,255,255,0.16)"/>
  <polygon points="45,84 8,58 45,48"  fill="rgba(120,40,10,0.55)"/>
  <polygon points="45,84 82,58 45,48" fill="rgba(100,30,5,0.72)"/>
  <polygon points="8,32 8,58 45,48 45,42"  fill="url(#lf)"/>
  <polygon points="82,32 82,58 45,48 45,42" fill="url(#rf)"/>
  <polygon points="45,6 82,32 82,58 45,84 8,58 8,32"
    fill="none" stroke="rgba(255,255,255,0.55)" stroke-width="1.5" stroke-linejoin="round"/>
  <polygon points="45,6 8,32 45,42" fill="rgba(255,255,255,0.10)"/>
</svg>
